<?xml version="1.0" encoding="utf-8"?>
<!-- Generator: Adobe Illustrator 23.0.3, SVG Export Plug-In . SVG Version: 6.00 Build 0)  -->
<svg version="1.1" id="Capa_1" xmlns="http://www.w3.org/2000/svg" xmlns:xlink="http://www.w3.org/1999/xlink" x="0px" y="0px"
	 width="1280px" height="960px" viewBox="0 0 1280 960" style="enable-background:new 0 0 1280 960;" xml:space="preserve">
<style type="text/css">
	.st0{fill:none;stroke:#000000;}
	.st1{fill:none;stroke:#000000;stroke-width:1.0892;}
</style>
<g>
	<title>Layer 1</title>
	<path id="uranio_o" class="st0" d="M743.42,735.3c-247.25,99.98-493.58,67.07-550.45-73.56s97.36-335.5,344.61-435.48
		s493.58-67.07,550.45,73.56S990.67,635.32,743.42,735.3z"/>
	<path id="saturno_o" class="st0" d="M729.35,700.5c-222.11,89.81-443.8,59.22-495.39-68.36s86.53-303.68,308.63-393.5
		s443.8-59.22,495.4,68.36S951.46,610.68,729.35,700.5z"/>
	<path id="jupiter_o" class="st0" d="M718.51,673.69c-208.6,84.35-415.24,59.52-461.75-55.5s84.79-276.5,293.39-360.85
		s415.24-59.52,461.75,55.5C1058.41,427.86,927.11,589.34,718.51,673.69L718.51,673.69z"/>
	<path id="marte:o" class="st0" d="M705.56,641.66c-193.7,78.33-384.31,58.42-425.92-44.49s81.58-249.7,275.28-328.03
		s384.31-58.42,425.92,44.49S899.26,563.34,705.56,641.66z"/>
	<path id="tierra_o" class="st0" d="M691.86,607.79c-177.87,71.92-351.68,56.64-388.4-34.16s77.62-222.61,255.49-294.54
		s351.68-56.64,388.4,34.16S869.73,535.86,691.86,607.79L691.86,607.79z"/>
	<path id="venus_o" class="st0" d="M681.02,580.99c-161.11,65.15-317.54,53.8-349.55-25.36s72.57-196.04,233.68-261.19
		s317.54-53.8,349.55,25.36S842.13,515.84,681.02,580.99L681.02,580.99z"/>
	<path id="mercurio_o" class="st0" d="M669.86,552.16c-146.21,59.12-287.06,51.57-314.74-16.88
		c-27.68-68.46,68.33-171.79,214.54-230.91s287.06-51.57,314.74,16.88S816.07,493.04,669.86,552.16L669.86,552.16z"/>
	<path id="uranio_o_1_" class="st1" d="M753.55,762.92c-269.42,108.94-537.79,73.18-599.7-79.93s106.18-365.35,375.59-474.3
		s537.79-73.18,599.7,79.93S1022.97,653.98,753.55,762.92z"/>
</g>
</svg>
